<?xml version="1.0" ?><svg height="60px" version="1.1" viewBox="0 0 60 60" width="60px" xmlns="http://www.w3.org/2000/svg" xmlns:xlink="http://www.w3.org/1999/xlink"><title/><desc/><defs/><g fill="none" fill-rule="evenodd" id="People" stroke="none" stroke-width="1"><g fill="#000000" id="Icon-43"><path d="M55,34 C55.553,34 56,33.553 56,33 C56,32.447 55.553,32 55,32 L53,32 C52.447,32 52,32.447 52,33 L52,43 C52,43.553 52.447,44 53,44 L55,44 C55.553,44 56,43.553 56,43 C56,42.447 55.553,42 55,42 L54,42 L54,34 L55,34 Z M55,26 L45,26 C44.447,26 44,26.447 44,27 L44,49 C44,49.553 44.447,50 45,50 L55,50 C55.553,50 56,49.553 56,49 C56,48.447 55.553,48 55,48 L46,48 L46,28 L55,28 C55.553,28 56,27.553 56,27 C56,26.447 55.553,26 55,26 L55,26 Z M5,42 C4.448,42 4,42.447 4,43 C4,43.553 4.448,44 5,44 L7,44 C7.552,44 8,43.553 8,43 L8,33 C8,32.447 7.552,32 7,32 L5,32 C4.448,32 4,32.447 4,33 C4,33.553 4.448,34 5,34 L6,34 L6,42 L5,42 Z M5,50 L15,50 C15.552,50 16,49.553 16,49 L16,27 C16,26.447 15.552,26 15,26 L5,26 C4.448,26 4,26.447 4,27 C4,27.553 4.448,28 5,28 L14,28 L14,48 L5,48 C4.448,48 4,48.447 4,49 C4,49.553 4.448,50 5,50 L5,50 Z M20.853,7.976 L24.129,9.04 L29,5.491 L29,2.051 C25.35,2.415 22.276,4.752 20.853,7.976 L20.853,7.976 Z M31,2.051 L31,5.49 L35.884,9.035 L39.147,7.976 C37.724,4.752 34.65,2.415 31,2.051 L31,2.051 Z M40,12 C40,11.271 39.917,10.562 39.768,9.877 L36.499,10.938 L34.619,16.832 L36.63,19.466 C38.691,17.633 40,14.969 40,12 L40,12 Z M30,22 C31.826,22 33.535,21.5 35.01,20.641 L32.993,18 L26.978,18 L24.985,20.638 C26.461,21.498 28.171,22 30,22 L30,22 Z M25.468,10.54 L27.201,16 L32.785,16 L34.531,10.525 L30.001,7.236 L25.468,10.54 Z M23.367,19.463 L25.363,16.821 L23.496,10.938 L20.232,9.877 C20.083,10.563 20,11.271 20,12 C20,14.968 21.307,17.63 23.367,19.463 L23.367,19.463 Z M18,12 C18,10.713 18.209,9.476 18.585,8.313 C18.587,8.306 18.586,8.299 18.588,8.292 C18.591,8.282 18.599,8.275 18.603,8.266 C20.177,3.474 24.688,0 30,0 C35.314,0 39.827,3.476 41.399,8.271 C41.402,8.279 41.408,8.284 41.411,8.292 C41.413,8.297 41.411,8.303 41.413,8.309 C41.791,9.473 42,10.712 42,12 C42,15.949 40.074,19.448 37.121,21.636 C37.103,21.653 37.093,21.677 37.072,21.692 C37.045,21.713 37.013,21.722 36.983,21.739 C35.014,23.156 32.606,24 30,24 C27.396,24 24.992,23.158 23.023,21.744 C22.993,21.726 22.96,21.718 22.932,21.696 C22.91,21.68 22.899,21.654 22.879,21.637 C19.926,19.448 18,15.949 18,12 L18,12 Z M29,41.858 L29,34.142 C27.28,34.589 26,36.142 26,38 C26,39.858 27.28,41.411 29,41.858 L29,41.858 Z M31,34.142 L31,41.858 C32.721,41.411 34,39.858 34,38 C34,36.142 32.721,34.589 31,34.142 L31,34.142 Z M29,55 L29,43.91 C26.167,43.432 24,40.967 24,38 C24,35.033 26.167,32.568 29,32.09 L29,27 C29,26.447 29.448,26 30,26 C30.552,26 31,26.447 31,27 L31,32.09 C33.833,32.568 36,35.033 36,38 C36,40.967 33.833,43.432 31,43.91 L31,55 C31,55.553 30.552,56 30,56 C29.448,56 29,55.553 29,55 L29,55 Z M60,21 L60,55 C60,57.757 57.757,60 55,60 L5,60 C2.243,60 0,57.757 0,55 L0,21 C0,18.243 2.243,16 5,16 L16,16 C16.552,16 17,16.447 17,17 C17,17.553 16.552,18 16,18 L5,18 C3.346,18 2,19.346 2,21 L2,55 C2,56.654 3.346,58 5,58 L55,58 C56.654,58 58,56.654 58,55 L58,21 C58,19.346 56.654,18 55,18 L44,18 C43.447,18 43,17.553 43,17 C43,16.447 43.447,16 44,16 L55,16 C57.757,16 60,18.243 60,21 L60,21 Z" id="field-football"/></g></g></svg>