<?xml version="1.0" ?><!DOCTYPE svg  PUBLIC '-//W3C//DTD SVG 1.1//EN'  'http://www.w3.org/Graphics/SVG/1.1/DTD/svg11.dtd'><svg height="512px" style="enable-background:new 0 0 512 512;" version="1.1" viewBox="0 0 512 512" width="512px" xml:space="preserve" xmlns="http://www.w3.org/2000/svg" xmlns:xlink="http://www.w3.org/1999/xlink"><g id="_x31_63_x2C__cloud_x2C__search_x2C__storage_x2C__technology_x2C__computing_x2C_"><g><path d="M127.075,433.279l36.446,21.038c0.625,0.361,1.352,0.428,2.042,0.264    c0.656-0.198,1.281-0.626,1.646-1.252l41.219-71.409c0.361-0.625,0.428-1.35,0.228-2.008c-0.161-0.691-0.589-1.285-1.218-1.646    l-36.442-21.037c-0.628-0.362-1.383-0.429-2.042-0.264c-0.625,0.164-1.218,0.593-1.58,1.186l-41.254,71.475    c-0.362,0.625-0.46,1.35-0.263,2.008C126.022,432.324,126.45,432.917,127.075,433.279 M183.638,355.188l19.225,11.127l14.75-25.58    c-3.261-1.449-6.486-3.096-9.648-4.906l-0.263-0.132c-3.257-1.811-6.352-3.885-9.314-6.058L183.638,355.188z M241.218,173.848    c18.109-4.84,38.127-2.766,55.675,7.342c17.579,10.141,29.367,26.471,34.238,44.611s2.798,38.157-7.342,55.705    c-10.139,17.548-26.437,29.367-44.577,34.207c-18.141,4.872-38.159,2.798-55.707-7.342    c-17.579-10.141-29.367-26.438-34.238-44.578c-4.84-18.141-2.797-38.157,7.342-55.705    C206.748,190.507,223.077,178.721,241.218,173.848z M292.909,188.203c-15.639-9.021-33.452-10.865-49.617-6.52    c-16.165,4.313-30.684,14.815-39.703,30.421c-8.988,15.638-10.834,33.449-6.521,49.614c4.349,16.165,14.849,30.651,30.456,39.672    c15.603,9.021,33.449,10.865,49.582,6.52c16.165-4.313,30.684-14.815,39.703-30.421c9.023-15.639,10.834-33.45,6.521-49.614    C318.981,211.709,308.513,197.19,292.909,188.203z M152.954,413.263c2.93-0.791,6.156-0.461,9.02,1.086l0.263,0.132    c2.93,1.713,4.906,4.412,5.696,7.44c0.758,2.93,0.495,6.124-1.053,8.955l-0.165,0.33c-1.678,2.929-4.412,4.905-7.44,5.694    c-2.931,0.791-6.191,0.494-9.055-1.086l-0.232-0.132c-2.93-1.679-4.902-4.411-5.696-7.44c-0.79-2.897-0.491-6.123,1.057-8.988    l0.165-0.296C147.191,416.028,149.925,414.053,152.954,413.263z M331.395,321.968h96.693c16,0,30.487-6.485,40.956-16.956    c10.469-10.469,16.955-24.955,16.955-40.955c0-8-1.611-15.572-4.475-22.453c-2.997-7.078-7.377-13.466-12.775-18.799    c-1.088-0.955-1.646-2.437-1.319-3.918c1.057-4.873,1.548-9.746,1.548-14.553c0-15.934-5.629-30.947-15.144-42.799    c-9.514-11.853-22.98-20.609-38.65-24.001c-4.674-0.987-9.549-1.548-14.617-1.548c-4.576,0-9.022,0.461-13.27,1.285    c-4.411,0.855-8.692,2.139-12.676,3.785c-0.656,0.264-1.414,0.396-2.172,0.264c-2.205-0.329-3.689-2.403-3.359-4.609    c0.594-3.621,0.892-7.309,0.892-10.996c0-16.691-6.093-32.264-16.298-44.281c-10.205-12.049-24.56-20.609-41.121-23.243    c-3.488-0.56-7.177-0.856-10.995-0.856c-12.017,0-23.311,3.096-33.088,8.494c-10.076,5.598-18.635,13.663-24.759,23.342    l-0.13,0.23c-1.155,1.91-3.622,2.503-5.531,1.351c-6.619-4.05-13.631-6.585-20.709-7.771c-11.49-1.876-23.212-0.164-33.547,4.544    c-10.308,4.675-19.327,12.313-25.451,22.321c-3.72,6.091-6.419,13.104-7.672,20.808c-0.326,1.942-2.039,3.392-4.046,3.392    c-3.59-0.066-7.145,0.23-10.57,0.789c-13.792,2.272-25.844,9.384-34.471,19.359c-8.591,10.008-13.792,22.914-13.992,36.84    c-0.063,3.392,0.2,6.881,0.79,10.438l0.067,0.691c-0.032,2.205-1.843,4.016-4.082,3.983h-1.218    c-15.509,0-29.631,6.485-39.97,16.79c-10.335,10.338-16.888,24.527-17.186,39.936v1.186c0,15.901,6.387,30.289,16.726,40.758    l0.232,0.197c10.469,10.471,24.952,16.956,40.956,16.956h105.12c-14.88-13.696-25.184-31.146-30.22-50.01    c-6.949-25.845-4.019-54.355,10.371-79.409l0.098-0.23c14.519-25.121,37.794-41.977,63.771-48.924    c25.91-6.947,54.521-3.984,79.641,10.502c25.086,14.486,41.943,37.796,48.889,63.738c6.979,25.943,4.018,54.554-10.47,79.641    C345.682,306.691,339,314.955,331.395,321.968z M56.292,346.561H181.63v8.1H56.292V346.561z M231.605,369.245H438.82v8.065    H231.605V369.245z M460.024,369.245H485.9v8.065h-25.876V369.245z M44.472,368.554h98.21v8.099h-98.21V368.554z M308.678,160.877    c-23.177-13.367-49.583-16.1-73.549-9.68c-23.97,6.42-45.465,21.992-58.833,45.137l-0.133,0.197    c-13.266,23.112-15.965,49.451-9.546,73.353c6.419,23.935,21.959,45.434,45.136,58.833l0.165,0.099    c23.114,13.269,49.484,15.968,73.387,9.581c11.487-3.095,22.419-8.297,32.165-15.408c0.165-0.165,0.361-0.297,0.559-0.428    c10.307-7.639,19.26-17.516,26.107-29.334c13.367-23.145,16.066-49.549,9.646-73.518    C347.363,195.742,331.822,174.243,308.678,160.877z" style="fill-rule:evenodd;clip-rule:evenodd;"/></g></g><g id="Layer_1"/></svg>